<?xml version="1.0" standalone="no"?>
<!DOCTYPE svg PUBLIC "-//W3C//DTD SVG 20010904//EN"
 "http://www.w3.org/TR/2001/REC-SVG-20010904/DTD/svg10.dtd">
<svg version="1.0" xmlns="http://www.w3.org/2000/svg"
 width="128.000000pt" height="128.000000pt" viewBox="0 0 128.000000 128.000000"
 preserveAspectRatio="xMidYMid meet">
<metadata>
Created by potrace 1.14, written by Peter Selinger 2001-2017
</metadata>
<g transform="translate(0.000000,128.000000) scale(0.100000,-0.100000)"
fill="#000000" stroke="none">
<path d="M44 1124 c-48 -52 -53 -90 -16 -130 30 -32 45 -79 36 -116 -4 -18 -8
-37 -9 -43 0 -5 -4 -19 -7 -30 -4 -11 -2 -42 5 -68 10 -40 19 -52 52 -70 50
-28 56 -60 22 -119 -14 -24 -23 -49 -20 -56 3 -7 0 -19 -6 -26 -8 -9 -7 -18 4
-32 8 -10 15 -29 15 -42 0 -13 7 -30 15 -38 8 -9 15 -24 15 -35 0 -11 11 -24
24 -30 13 -6 29 -22 35 -35 6 -13 17 -24 25 -24 8 0 23 -12 34 -28 27 -37 115
-59 149 -37 13 9 23 25 23 36 0 27 62 89 88 89 11 0 33 3 49 6 29 6 30 4 37
-34 10 -66 48 -65 60 2 l7 38 47 -6 c36 -5 55 -15 80 -41 17 -19 32 -44 32
-55 0 -11 11 -27 24 -35 22 -15 29 -15 79 0 36 10 61 24 71 40 9 14 23 25 31
25 9 0 21 11 27 25 6 13 19 27 29 30 10 3 23 21 29 40 6 19 16 35 21 35 5 0 9
12 9 28 0 15 7 36 15 46 11 14 12 23 4 32 -6 7 -9 21 -7 31 2 10 -7 35 -20 56
-33 54 -27 86 22 114 31 17 43 31 53 65 7 23 10 52 7 63 -3 12 -6 28 -8 36 -2
8 -6 30 -10 49 -7 34 15 110 32 110 13 0 33 57 25 76 -13 36 -56 84 -75 84
-44 0 -148 -45 -210 -91 -77 -58 -238 -223 -280 -288 -22 -36 -28 -40 -28 -23
0 12 -5 22 -10 22 -6 0 2 19 18 43 37 54 44 67 39 67 -3 0 -18 -20 -34 -45
-15 -25 -34 -45 -41 -45 -8 0 -10 5 -6 13 5 8 2 7 -9 -2 -10 -8 -19 -12 -20
-10 -2 2 -27 40 -57 84 -30 44 -66 98 -82 119 -15 21 -28 45 -28 53 0 7 -4 13
-10 13 -17 0 -13 -8 58 -108 95 -137 123 -182 112 -182 -6 0 -10 -10 -10 -22
0 -17 -6 -13 -29 23 -38 60 -179 207 -256 269 -68 54 -147 95 -207 105 -32 6
-40 3 -64 -21z"/>
<path d="M832 1045 c-6 -14 -7 -25 -2 -25 9 0 25 39 18 46 -3 2 -10 -7 -16
-21z"/>
<path d="M771 950 c-23 -33 -40 -60 -38 -60 3 0 20 21 39 48 41 57 50 72 45
72 -2 0 -23 -27 -46 -60z"/>
</g>
</svg>
