<?xml version="1.0" encoding="utf-8"?>
<!-- Svg Vector Icons : http://www.onlinewebfonts.com/icon -->
<!DOCTYPE svg PUBLIC "-//W3C//DTD SVG 1.1//EN" "http://www.w3.org/Graphics/SVG/1.1/DTD/svg11.dtd">
<svg version="1.1" xmlns="http://www.w3.org/2000/svg" xmlns:xlink="http://www.w3.org/1999/xlink" x="0px" y="0px" viewBox="0 0 256 256" enable-background="new 0 0 256 256" xml:space="preserve">
<metadata> Svg Vector Icons : http://www.onlinewebfonts.com/icon </metadata>
<g><g><g><path fill="#000000" d="M102.9,47.3c-12.7,12.4-23.3,23-23.5,23.5c-1.3,3.5,1.3,7.3,5,7.3c1.9,0,3.9-1.8,20.2-18.1l18.1-18.1v64.7v64.7l1.5,1.8c2.2,2.4,5.3,2.4,7.4,0l1.5-1.8v-64.7V41.9l18.1,18.1c16.3,16.2,18.3,18.1,20.2,18.1c2.9,0,5.3-2.5,5.3-5.3c0-2.3,1.2-1.1-29.7-31.5c-15.1-14.8-17.3-16.7-19.1-16.7C126.2,24.7,123.5,27.1,102.9,47.3z"/><path fill="#000000" d="M12.9,146.1c-3,1.6-2.9,0.6-2.9,42.4v39.7l1.6,1.6l1.6,1.6H128h114.8l1.6-1.6l1.6-1.6v-39.7c0-38.9,0-39.7-1.3-41.1c-0.7-0.8-2-1.6-2.9-1.8c-1.8-0.5-5.3,1.2-5.9,2.7c-0.2,0.6-0.4,17.2-0.4,36.9v35.8H128H20.4v-36.1c-0.1-38,0-37.2-3.1-38.8C15.6,145.1,14.6,145.1,12.9,146.1z"/></g></g></g>
</svg>